<svg width="20" height="20" viewBox="0 0 20 20" fill="none" xmlns="http://www.w3.org/2000/svg">
<path d="M15.25 3H4.75C3.784 3 3 3.784 3 4.75V15.25C3 16.216 3.784 17 4.75 17H15.25C16.216 17 17 16.216 17 15.25V4.75C17 3.784 16.216 3 15.25 3ZM10 5.1875C11.2084 5.1875 12.1875 6.16663 12.1875 7.375C12.1875 8.58337 11.2084 9.5625 10 9.5625C8.79163 9.5625 7.8125 8.58337 7.8125 7.375C7.8125 6.16663 8.79163 5.1875 10 5.1875ZM14.375 14.375H5.625V14.1563C5.625 12.5384 7.59725 10.875 10 10.875C12.4028 10.875 14.375 12.5384 14.375 14.1563V14.375Z" fill="black"/>
</svg>
