<svg width="20" height="20" viewBox="0 0 20 20" fill="none" xmlns="http://www.w3.org/2000/svg">
<path d="M2.49999 10.8333H3.33333V12.5V16.6667C3.33333 17.5858 4.08083 18.3333 4.99999 18.3333H7.49999H12.5H15C15.9192 18.3333 16.6667 17.5858 16.6667 16.6667V12.5V10.8333H17.5C17.8367 10.8333 18.1417 10.63 18.27 10.3192C18.3992 10.0075 18.3275 9.64915 18.0892 9.41082L10.5892 1.91082C10.2633 1.58498 9.73666 1.58498 9.41083 1.91082L1.91083 9.41082C1.67249 9.64915 1.60083 10.0075 1.72999 10.3192C1.85833 10.63 2.16333 10.8333 2.49999 10.8333ZM8.33333 16.6667V12.5H11.6667V16.6667H8.33333ZM9.99999 3.67832L15 8.67832V12.5L15.0008 16.6667H13.3333V12.5C13.3333 11.5808 12.5858 10.8333 11.6667 10.8333H8.33333C7.41416 10.8333 6.66666 11.5808 6.66666 12.5V16.6667H4.99999V12.5V9.99998V8.67832L9.99999 3.67832Z" fill="black"/>
</svg>
