<svg width="20" height="20" viewBox="0 0 20 20" fill="none" xmlns="http://www.w3.org/2000/svg">
<path d="M9.99996 1.6665C5.40496 1.6665 1.66663 5.40484 1.66663 9.99984C1.66663 14.5948 5.40496 18.3332 9.99996 18.3332C14.595 18.3332 18.3333 14.5948 18.3333 9.99984C18.3333 5.40484 14.595 1.6665 9.99996 1.6665ZM9.99996 16.6665C6.32413 16.6665 3.33329 13.6757 3.33329 9.99984C3.33329 6.324 6.32413 3.33317 9.99996 3.33317C13.6758 3.33317 16.6666 6.324 16.6666 9.99984C16.6666 13.6757 13.6758 16.6665 9.99996 16.6665Z" fill="black"/>
<path d="M12.3574 12.3566C12.2033 12.5099 12.0374 12.6474 11.8641 12.7641C11.6833 12.8858 11.4933 12.9891 11.2974 13.0716C11.0941 13.1574 10.8841 13.2224 10.6733 13.2658C10.2308 13.3558 9.76744 13.3558 9.3266 13.2658C9.11494 13.2224 8.90494 13.1574 8.7016 13.0716C8.5066 12.9891 8.31577 12.8858 8.13577 12.7641C7.9616 12.6466 7.79577 12.5099 7.6416 12.3566C7.49077 12.2058 7.35327 12.0399 7.23494 11.8633L5.85327 12.7958C6.03244 13.0608 6.23827 13.3099 6.46494 13.5366C6.69244 13.7641 6.9416 13.9699 7.2041 14.1458C7.47327 14.3274 7.7591 14.4824 8.0541 14.6066C8.35827 14.7349 8.6741 14.8333 8.9941 14.8983C9.3241 14.9658 9.66327 14.9999 9.99994 14.9999C10.3366 14.9999 10.6758 14.9658 11.0066 14.8983C11.3258 14.8333 11.6416 14.7349 11.9458 14.6066C12.2408 14.4824 12.5258 14.3274 12.7966 14.1458C13.0574 13.9691 13.3066 13.7641 13.5349 13.5366C13.7616 13.3108 13.9683 13.0608 14.1466 12.7958L12.7649 11.8633C12.6458 12.0399 12.5083 12.2058 12.3574 12.3566Z" fill="black"/>
<path d="M7.08337 10C7.77373 10 8.33337 9.44036 8.33337 8.75C8.33337 8.05964 7.77373 7.5 7.08337 7.5C6.39302 7.5 5.83337 8.05964 5.83337 8.75C5.83337 9.44036 6.39302 10 7.08337 10Z" fill="black"/>
<path d="M12.9108 9.98833C13.5979 9.98833 14.155 9.4313 14.155 8.74417C14.155 8.05703 13.5979 7.5 12.9108 7.5C12.2237 7.5 11.6666 8.05703 11.6666 8.74417C11.6666 9.4313 12.2237 9.98833 12.9108 9.98833Z" fill="black"/>
</svg>
