<svg width="64" height="64" viewBox="0 0 64 64" fill="none" xmlns="http://www.w3.org/2000/svg">
<path d="M26.02 2H36C39.87 2 43 5.13 43 9L43.36 9.36C44.41 10.41 45 11.83 45 13.31C45 13.77 44.94 14.22 44.83 14.67L44.05 17.81C43.52 17.31 42.8 17 42 17H41V16.34C41 14.41 39.62 12.75 37.72 12.4L34.11 11.75C33.01 11.55 32.04 10.99 31.33 10.22L26.42 11.86C24.38 12.54 23 14.45 23 16.6V17H22C21.19 17 20.46 17.32 19.92 17.84L19.37 16.74C19.13 16.25 19 15.72 19 15.17C19 13.84 19.75 12.62 20.94 12.03L21 12L20.31 9.93C20.1 9.31 20 8.67 20 8.02C20 6.36 20.68 4.86 21.76 3.76C22.86 2.68 24.36 2 26.02 2Z" fill="#656D78"/>
<path d="M42 56V62H22V56H36H42Z" fill="#B4DD7F"/>
<path d="M42 45.9999V49.9999H36H35L33.85 48.8499C33.31 48.3099 32.57 47.9999 31.8 47.9999C30.7 47.9999 29.69 48.6199 29.2 49.6099L29 49.9999H22V45.9999H14V42.7999C14 39.7599 15.35 36.8699 17.69 34.9199C19.2 33.6699 21.04 32.8699 22.98 32.6299L25.18 32.3499L28 37.9999L32 34.9999L36 37.9999L38.82 32.3499L41.02 32.6299C42.96 32.8699 44.8 33.6699 46.31 34.9199C47.48 35.8999 48.4 37.0999 49.03 38.4499C49.66 39.7999 50 41.2799 50 42.7999V45.9999H42Z" fill="#B4DD7F"/>
<path d="M32.0001 35L28.0001 38L25.1801 32.35L28.0001 32L32.0001 35Z" fill="#A0D468"/>
<path d="M38.82 32.35L36 38L32 35L36 32L38.82 32.35Z" fill="#A0D468"/>
<path d="M42 50V46H50V51C50 53.76 47.76 56 45 56H42H36C37.66 56 39 54.66 39 53C39 52.17 38.66 51.42 38.12 50.88C37.58 50.34 36.83 50 36 50H42Z" fill="#F0D0B4"/>
<path d="M36 50C36.83 50 37.58 50.34 38.12 50.88C38.66 51.42 39 52.17 39 53C39 54.66 37.66 56 36 56H22H19C16.24 56 14 53.76 14 51V46H22V50H29L29.2 49.61C29.69 48.62 30.7 48 31.8 48C32.57 48 33.31 48.31 33.85 48.85L35 50H36Z" fill="#F0D0B4"/>
<path d="M28 29.0901C29.84 29.8001 30.9 30.0001 31.99 30.0001C33.4 30.0001 34.77 29.6801 36 29.0901V29.1001V32.0001L32 35.0001L28 32.0001V29.1001V29.0901Z" fill="#F0D0B4"/>
<path d="M44.0499 17.81C44.6399 18.36 44.9999 19.14 44.9999 20C44.9999 20.83 44.6599 21.58 44.1199 22.12C43.5799 22.66 42.8299 23 41.9999 23H40.9099C40.9699 22.64 40.9999 22.27 40.9999 21.9V17H41.9999C42.7999 17 43.5199 17.31 44.0499 17.81Z" fill="#F0D0B4"/>
<path d="M37.72 12.4C39.62 12.75 41 14.41 41 16.34V17V21.9C41 22.27 40.97 22.64 40.91 23C40.76 23.98 40.39 24.92 39.83 25.75C39.82 25.78 39.8 25.8 39.78 25.83C38.82 27.26 37.51 28.38 36 29.09C34.77 29.68 33.4 30 31.99 30C30.9 30 29.84 29.8 28 29.09C27.86 29.03 27.72 28.96 27.59 28.89C26.25 28.17 25.09 27.13 24.22 25.83L24.17 25.75C23.62 24.92 23.25 23.98 23.09 23C23.03 22.64 23 22.27 23 21.9V17V16.6C23 14.45 24.38 12.54 26.42 11.86L31.33 10.22C32.04 10.99 33.01 11.55 34.11 11.75L37.72 12.4Z" fill="#F0D0B4"/>
<path d="M23.09 23H22C21.17 23 20.42 22.66 19.88 22.12C19.34 21.58 19 20.83 19 20C19 19.16 19.35 18.39 19.92 17.84C20.46 17.32 21.19 17 22 17H23V21.9C23 22.27 23.03 22.64 23.09 23Z" fill="#F0D0B4"/>
<path d="M27 22H37L36.97 22.12C36.68 23.26 36.03 24.23 35.15 24.92C34.28 25.6 33.18 26 32 26C29.65 26 27.6 24.4 27.03 22.12L27 22Z" fill="#FF826E"/>
<path d="M27.707 19.707L30.414 17L27.707 14.293L26.293 15.707L27.586 17L26.293 18.293L27.707 19.707Z" fill="black"/>
<path d="M37.7069 18.293L36.4139 17L37.7069 15.707L36.2929 14.293L33.5859 17L36.2929 19.707L37.7069 18.293Z" fill="black"/>
<path d="M46.95 34.157C45.292 32.775 43.283 31.903 41.14 31.635L37 31.117V29.703C38.429 28.914 39.675 27.791 40.611 26.386L40.667 26.303C41.141 25.592 41.481 24.815 41.705 24.003H42C44.206 24.003 46 22.209 46 20.003C46 19.078 45.671 18.235 45.142 17.557L45.804 14.908C45.934 14.386 46 13.848 46 13.312C46 11.554 45.315 9.9 44.072 8.657L43.989 8.574C43.767 4.36 40.269 1 36 1H26.022C22.15 1 19 4.15 19 8.022C19 8.778 19.121 9.525 19.36 10.243L19.8 11.562C18.674 12.404 18 13.726 18 15.17C18 15.867 18.165 16.564 18.476 17.188L18.735 17.706C18.275 18.358 18 19.148 18 20.003C18 22.209 19.794 24.003 22 24.003H22.296C22.519 24.814 22.86 25.592 23.333 26.302L23.391 26.389C24.327 27.792 25.572 28.914 27 29.703V31.117L22.859 31.634C20.716 31.902 18.708 32.774 17.049 34.156C14.476 36.302 13 39.454 13 42.804V51C13 54.309 15.691 57 19 57H21V63H43V57H45C48.309 57 51 54.309 51 51V42.804C51 39.454 49.524 36.302 46.95 34.157ZM30.333 35L28.358 36.481L26.702 33.17L27.722 33.042L30.333 35ZM36.277 33.042L37.297 33.17L35.641 36.481L33.667 35L36.277 33.042ZM42 22.003H41.992C41.992 21.968 42 21.933 42 21.898V18.003C43.103 18.003 44 18.9 44 20.003C44 21.106 43.103 22.003 42 22.003ZM22 22.003C20.897 22.003 20 21.106 20 20.003C20 18.9 20.897 18.003 22 18.003V21.897C22 21.933 22.007 21.967 22.008 22.003H22ZM22.048 16.003H22C21.395 16.003 20.827 16.148 20.313 16.389L20.266 16.294C20.092 15.947 20 15.559 20 15.171C20 14.213 20.532 13.352 21.447 12.895L22.223 12.507L21.258 9.612C21.087 9.098 21 8.563 21 8.022C21 5.253 23.253 3 26.022 3H36C39.309 3 42 5.691 42 9V9.414L42.658 10.072C43.511 10.925 44 12.106 44 13.313C44 13.687 43.954 14.062 43.863 14.425L43.401 16.271C42.963 16.106 42.494 16.004 41.999 16.004H41.969C41.816 13.734 40.16 11.832 37.893 11.42L34.284 10.764C32.381 10.417 31 8.761 31 6.827V5H29V6.827C29 7.862 29.264 8.844 29.732 9.702L26.102 10.912C23.842 11.665 22.282 13.67 22.048 16.003ZM25.057 25.282L24.999 25.195C24.345 24.215 24 23.075 24 21.897V16.604C24 14.879 25.099 13.354 26.735 12.809L31.071 11.364C31.861 12.048 32.836 12.532 33.926 12.731L37.536 13.387C38.964 13.646 40 14.888 40 16.338V21.898C40 23.076 39.655 24.215 39.007 25.187L38.947 25.277C37.394 27.607 34.798 28.997 32 28.997C31.999 28.997 31.997 28.997 31.995 28.997C29.2 28.995 26.606 27.606 25.057 25.282ZM31.994 30.997H32C33.033 30.997 34.038 30.827 35 30.536V31.5L32 33.75L29 31.5V30.536C29.96 30.826 30.963 30.996 31.994 30.997ZM15 51V47H21V49H19V51H29.618L30.091 50.054C30.416 49.404 31.069 49 31.796 49C32.297 49 32.789 49.204 33.144 49.558L34.586 51H36C37.103 51 38 51.897 38 53C38 54.103 37.103 55 36 55H19C16.794 55 15 53.206 15 51ZM41 61H23V57H41V61ZM45 55H39.444C39.788 54.409 40 53.732 40 53C40 52.268 39.788 51.591 39.444 51H45V49H43V47H49V51C49 53.206 47.206 55 45 55ZM49 45H43V41H41V49H36H35.414L34.558 48.144C33.82 47.406 32.84 47 31.796 47C30.367 47 29.077 47.762 28.386 49H23V41H21V45H15V42.804C15 40.049 16.214 37.457 18.33 35.693C19.694 34.557 21.346 33.84 23.107 33.619L24.598 33.433L27.642 39.519L32 36.25L36.358 39.519L39.402 33.433L40.893 33.619C42.655 33.84 44.307 34.557 45.67 35.693C47.786 37.457 49 40.049 49 42.804V45Z" fill="black"/>
<path d="M37.9399 22.361L38.2789 21H25.7209L26.0599 22.362C26.7429 25.093 29.1859 27 31.9999 27C34.8139 27 37.2569 25.093 37.9399 22.361ZM28.4639 23H35.5359C34.8069 24.218 33.4799 25 31.9999 25C30.5199 25 29.1939 24.217 28.4639 23Z" fill="black"/>
<path d="M51 23H59V25H51V23Z" fill="black"/>
<path d="M48.2863 20.2966L54.2852 14.2977L55.6992 15.7117L49.7003 21.7106L48.2863 20.2966Z" fill="black"/>
<path d="M48.2842 27.7092L49.6982 26.2952L55.6971 32.2941L54.2831 33.7081L48.2842 27.7092Z" fill="black"/>
<path d="M5 23H13V25H5V23Z" fill="black"/>
<path d="M8.29028 15.7061L9.70428 14.2921L15.7032 20.2909L14.2892 21.7049L8.29028 15.7061Z" fill="black"/>
<path d="M8.28821 32.2908L14.2871 26.2919L15.7011 27.7059L9.70221 33.7048L8.28821 32.2908Z" fill="black"/>
</svg>
