<svg width="237" height="142" viewBox="0 0 237 142" fill="none" xmlns="http://www.w3.org/2000/svg">
<path d="M69.408 77.336L76.248 86H71.28L65.52 78.392V86H61.416V69.032H65.52V76.496L71.328 69.032H76.248L69.408 77.336ZM91.3063 72.608V86H87.1783V83.576C86.7943 84.36 86.2183 84.984 85.4503 85.448C84.6983 85.912 83.8183 86.144 82.8103 86.144C81.2743 86.144 80.0503 85.632 79.1383 84.608C78.2423 83.584 77.7943 82.176 77.7943 80.384V72.608H81.8743V79.88C81.8743 80.792 82.1063 81.504 82.5703 82.016C83.0503 82.512 83.6903 82.76 84.4903 82.76C85.3223 82.76 85.9783 82.496 86.4583 81.968C86.9383 81.44 87.1783 80.688 87.1783 79.712V72.608H91.3063ZM98.2388 75.128C98.7508 74.312 99.4068 73.664 100.207 73.184C101.023 72.704 101.903 72.464 102.847 72.464V76.856H101.671C100.583 76.856 99.7348 77.088 99.1268 77.552C98.5348 78.016 98.2388 78.8 98.2388 79.904V86H94.1348V72.608H98.2388V75.128ZM109.652 72.44C110.676 72.44 111.556 72.672 112.292 73.136C113.028 73.6 113.564 74.232 113.9 75.032V68.24H118.004V86H113.9V83.576C113.564 84.376 113.028 85.008 112.292 85.472C111.556 85.936 110.676 86.168 109.652 86.168C108.548 86.168 107.556 85.896 106.676 85.352C105.812 84.792 105.124 83.992 104.612 82.952C104.116 81.912 103.868 80.696 103.868 79.304C103.868 77.896 104.116 76.68 104.612 75.656C105.124 74.616 105.812 73.824 106.676 73.28C107.556 72.72 108.548 72.44 109.652 72.44ZM110.972 76.04C110.092 76.04 109.38 76.328 108.836 76.904C108.308 77.48 108.044 78.28 108.044 79.304C108.044 80.328 108.308 81.128 108.836 81.704C109.38 82.28 110.092 82.568 110.972 82.568C111.836 82.568 112.54 82.272 113.084 81.68C113.644 81.088 113.924 80.296 113.924 79.304C113.924 78.296 113.644 77.504 113.084 76.928C112.54 76.336 111.836 76.04 110.972 76.04ZM120.446 68.84C120.446 68.216 120.67 67.704 121.118 67.304C121.566 66.888 122.158 66.68 122.894 66.68C123.63 66.68 124.222 66.888 124.67 67.304C125.118 67.704 125.342 68.216 125.342 68.84C125.342 69.448 125.118 69.96 124.67 70.376C124.222 70.776 123.63 70.976 122.894 70.976C122.158 70.976 121.566 70.776 121.118 70.376C120.67 69.96 120.446 69.448 120.446 68.84ZM124.934 72.608V86H120.83V72.608H124.934ZM135.352 82.472V86H133.504C131.936 86 130.712 85.616 129.832 84.848C128.968 84.064 128.536 82.776 128.536 80.984V76.064H126.736V72.608H128.536V69.32H132.64V72.608H135.328V76.064H132.64V81.056C132.64 81.584 132.744 81.952 132.952 82.16C133.176 82.368 133.544 82.472 134.056 82.472H135.352ZM137.274 68.84C137.274 68.216 137.498 67.704 137.946 67.304C138.394 66.888 138.986 66.68 139.722 66.68C140.458 66.68 141.05 66.888 141.498 67.304C141.946 67.704 142.17 68.216 142.17 68.84C142.17 69.448 141.946 69.96 141.498 70.376C141.05 70.776 140.458 70.976 139.722 70.976C138.986 70.976 138.394 70.776 137.946 70.376C137.498 69.96 137.274 69.448 137.274 68.84ZM141.762 72.608V86H137.658V72.608H141.762ZM153.092 72.464C154.628 72.464 155.844 72.976 156.74 74C157.652 75.024 158.108 76.432 158.108 78.224V86H154.004V78.704C154.004 77.808 153.764 77.112 153.284 76.616C152.82 76.104 152.196 75.848 151.412 75.848C150.58 75.848 149.916 76.112 149.42 76.64C148.94 77.168 148.7 77.92 148.7 78.896V86H144.596V72.608H148.7V75.056C149.084 74.256 149.652 73.624 150.404 73.16C151.172 72.696 152.068 72.464 153.092 72.464ZM165.902 72.44C166.926 72.44 167.806 72.672 168.542 73.136C169.278 73.6 169.822 74.232 170.174 75.032V72.608H174.254V85.928C174.254 87.176 174.014 88.296 173.534 89.288C173.054 90.296 172.318 91.096 171.326 91.688C170.334 92.28 169.102 92.576 167.63 92.576C165.614 92.576 163.998 92.096 162.782 91.136C161.582 90.192 160.862 88.904 160.622 87.272H164.678C164.806 87.816 165.094 88.24 165.542 88.544C166.006 88.848 166.606 89 167.342 89C168.19 89 168.87 88.752 169.382 88.256C169.91 87.776 170.174 87 170.174 85.928V83.576C169.822 84.376 169.278 85.008 168.542 85.472C167.806 85.936 166.926 86.168 165.902 86.168C164.798 86.168 163.806 85.896 162.926 85.352C162.062 84.792 161.374 83.992 160.862 82.952C160.366 81.912 160.118 80.696 160.118 79.304C160.118 77.896 160.366 76.68 160.862 75.656C161.374 74.616 162.062 73.824 162.926 73.28C163.806 72.72 164.798 72.44 165.902 72.44ZM167.222 76.04C166.342 76.04 165.63 76.328 165.086 76.904C164.558 77.48 164.294 78.28 164.294 79.304C164.294 80.328 164.558 81.128 165.086 81.704C165.63 82.28 166.342 82.568 167.222 82.568C168.086 82.568 168.79 82.272 169.334 81.68C169.894 81.088 170.174 80.296 170.174 79.304C170.174 78.296 169.894 77.504 169.334 76.928C168.79 76.336 168.086 76.04 167.222 76.04Z" fill="#B481F8"/>
<path d="M13.243 123.219V135H11.696V125.599L7.939 135H6.562L2.788 125.633V135H1.241V123.219H3.094L7.276 133.113L11.39 123.219H13.243ZM19.5426 125.548C20.4492 125.548 21.2142 125.775 21.8376 126.228C22.4722 126.681 22.9142 127.288 23.1636 128.047V125.667H24.7106V135H23.1636V132.62C22.9142 133.379 22.4722 133.986 21.8376 134.439C21.2142 134.892 20.4492 135.119 19.5426 135.119C18.7152 135.119 17.9786 134.926 17.3326 134.541C16.6866 134.156 16.1766 133.606 15.8026 132.892C15.4399 132.167 15.2586 131.317 15.2586 130.342C15.2586 129.367 15.4399 128.517 15.8026 127.792C16.1766 127.067 16.6866 126.511 17.3326 126.126C17.9786 125.741 18.7152 125.548 19.5426 125.548ZM19.9846 126.925C19.0326 126.925 18.2676 127.231 17.6896 127.843C17.1229 128.444 16.8396 129.277 16.8396 130.342C16.8396 131.407 17.1229 132.246 17.6896 132.858C18.2676 133.459 19.0326 133.759 19.9846 133.759C20.5966 133.759 21.1406 133.617 21.6166 133.334C22.1039 133.051 22.4836 132.654 22.7556 132.144C23.0276 131.623 23.1636 131.022 23.1636 130.342C23.1636 129.662 23.0276 129.061 22.7556 128.54C22.4836 128.019 22.1039 127.622 21.6166 127.35C21.1406 127.067 20.5966 126.925 19.9846 126.925ZM35.7576 129.815C35.7576 130.144 35.735 130.427 35.6896 130.665H28.2266C28.2606 131.73 28.561 132.529 29.1276 133.062C29.7056 133.595 30.4083 133.861 31.2356 133.861C31.9836 133.861 32.607 133.674 33.1056 133.3C33.6156 132.915 33.9273 132.405 34.0406 131.77H35.6896C35.5763 132.416 35.3213 132.994 34.9246 133.504C34.5393 134.014 34.035 134.411 33.4116 134.694C32.7883 134.977 32.0856 135.119 31.3036 135.119C30.4083 135.119 29.615 134.926 28.9236 134.541C28.2323 134.156 27.6883 133.606 27.2916 132.892C26.9063 132.167 26.7136 131.317 26.7136 130.342C26.7136 129.367 26.9063 128.517 27.2916 127.792C27.6883 127.067 28.2323 126.511 28.9236 126.126C29.615 125.741 30.4083 125.548 31.3036 125.548C32.2103 125.548 32.998 125.741 33.6666 126.126C34.3466 126.511 34.8623 127.027 35.2136 127.673C35.5763 128.319 35.7576 129.033 35.7576 129.815ZM34.1936 129.917C34.2276 129.226 34.1143 128.648 33.8536 128.183C33.593 127.718 33.236 127.373 32.7826 127.146C32.3293 126.919 31.8363 126.806 31.3036 126.806C30.4536 126.806 29.7396 127.072 29.1616 127.605C28.5836 128.126 28.272 128.897 28.2266 129.917H34.1936ZM40.705 125.548C41.759 125.548 42.6034 125.826 43.238 126.381C43.884 126.925 44.275 127.662 44.411 128.591H42.932C42.864 128.036 42.6317 127.582 42.235 127.231C41.8497 126.868 41.3284 126.687 40.671 126.687C40.1157 126.687 39.6794 126.823 39.362 127.095C39.056 127.356 38.903 127.713 38.903 128.166C38.903 128.506 39.005 128.784 39.209 128.999C39.4244 129.203 39.685 129.362 39.991 129.475C40.3084 129.577 40.739 129.69 41.283 129.815C41.9744 129.974 42.5297 130.138 42.949 130.308C43.3797 130.467 43.7424 130.727 44.037 131.09C44.343 131.453 44.496 131.94 44.496 132.552C44.496 133.311 44.207 133.929 43.629 134.405C43.0624 134.881 42.303 135.119 41.351 135.119C40.2404 135.119 39.3337 134.853 38.631 134.32C37.9284 133.787 37.5147 133.045 37.39 132.093H38.886C38.9427 132.66 39.1864 133.119 39.617 133.47C40.059 133.821 40.637 133.997 41.351 133.997C41.8837 133.997 42.2974 133.861 42.592 133.589C42.898 133.317 43.051 132.96 43.051 132.518C43.051 132.155 42.9434 131.866 42.728 131.651C42.5127 131.436 42.2464 131.271 41.929 131.158C41.6117 131.045 41.1754 130.926 40.62 130.801C39.9287 130.642 39.3734 130.484 38.954 130.325C38.546 130.166 38.1947 129.917 37.9 129.577C37.6167 129.226 37.475 128.755 37.475 128.166C37.475 127.384 37.764 126.755 38.342 126.279C38.92 125.792 39.7077 125.548 40.705 125.548ZM51.0173 133.64V135H49.8613C48.9093 135 48.1953 134.773 47.7193 134.32C47.2546 133.867 47.0223 133.107 47.0223 132.042V127.01H45.6283V125.667H47.0223V123.338H48.5863V125.667H51.0003V127.01H48.5863V132.076C48.5863 132.677 48.6939 133.09 48.9093 133.317C49.1359 133.532 49.5213 133.64 50.0653 133.64H51.0173ZM54.4521 127.554C54.7581 126.908 55.2057 126.409 55.7951 126.058C56.3844 125.695 57.0871 125.514 57.9031 125.514V127.197H57.4271C56.5544 127.197 55.8404 127.424 55.2851 127.877C54.7297 128.319 54.4521 129.056 54.4521 130.087V135H52.9051V125.667H54.4521V127.554ZM63.6625 125.548C64.5578 125.548 65.3568 125.741 66.0595 126.126C66.7735 126.511 67.3288 127.067 67.7255 127.792C68.1335 128.517 68.3375 129.367 68.3375 130.342C68.3375 131.317 68.1335 132.167 67.7255 132.892C67.3288 133.606 66.7735 134.156 66.0595 134.541C65.3568 134.926 64.5578 135.119 63.6625 135.119C62.7671 135.119 61.9625 134.926 61.2485 134.541C60.5458 134.156 59.9905 133.606 59.5825 132.892C59.1745 132.167 58.9705 131.317 58.9705 130.342C58.9705 129.367 59.1745 128.517 59.5825 127.792C59.9905 127.067 60.5458 126.511 61.2485 126.126C61.9625 125.741 62.7671 125.548 63.6625 125.548ZM63.6625 126.908C63.1071 126.908 62.5915 127.033 62.1155 127.282C61.6508 127.531 61.2711 127.917 60.9765 128.438C60.6931 128.948 60.5515 129.583 60.5515 130.342C60.5515 131.09 60.6931 131.725 60.9765 132.246C61.2711 132.756 61.6508 133.136 62.1155 133.385C62.5915 133.634 63.1071 133.759 63.6625 133.759C64.2178 133.759 64.7278 133.634 65.1925 133.385C65.6685 133.136 66.0481 132.756 66.3315 132.246C66.6261 131.725 66.7735 131.09 66.7735 130.342C66.7735 129.583 66.6261 128.948 66.3315 128.438C66.0481 127.917 65.6685 127.531 65.1925 127.282C64.7278 127.033 64.2178 126.908 63.6625 126.908ZM78.7865 125.548C79.6818 125.548 80.4808 125.741 81.1835 126.126C81.8975 126.511 82.4528 127.067 82.8495 127.792C83.2575 128.517 83.4615 129.367 83.4615 130.342C83.4615 131.317 83.2575 132.167 82.8495 132.892C82.4528 133.606 81.8975 134.156 81.1835 134.541C80.4808 134.926 79.6818 135.119 78.7865 135.119C77.8912 135.119 77.0865 134.926 76.3725 134.541C75.6698 134.156 75.1145 133.606 74.7065 132.892C74.2985 132.167 74.0945 131.317 74.0945 130.342C74.0945 129.367 74.2985 128.517 74.7065 127.792C75.1145 127.067 75.6698 126.511 76.3725 126.126C77.0865 125.741 77.8912 125.548 78.7865 125.548ZM78.7865 126.908C78.2312 126.908 77.7155 127.033 77.2395 127.282C76.7748 127.531 76.3952 127.917 76.1005 128.438C75.8172 128.948 75.6755 129.583 75.6755 130.342C75.6755 131.09 75.8172 131.725 76.1005 132.246C76.3952 132.756 76.7748 133.136 77.2395 133.385C77.7155 133.634 78.2312 133.759 78.7865 133.759C79.3418 133.759 79.8518 133.634 80.3165 133.385C80.7925 133.136 81.1722 132.756 81.4555 132.246C81.7502 131.725 81.8975 131.09 81.8975 130.342C81.8975 129.583 81.7502 128.948 81.4555 128.438C81.1722 127.917 80.7925 127.531 80.3165 127.282C79.8518 127.033 79.3418 126.908 78.7865 126.908ZM89.6083 123.457C88.781 123.446 88.203 123.587 87.8743 123.882C87.557 124.177 87.3983 124.687 87.3983 125.412V125.667H89.6083V127.027H87.3983V135H85.8513V127.027H84.5083V125.667H85.8513V125.293C85.8513 123.06 87.1037 121.995 89.6083 122.097V123.457ZM105.586 128.999C105.586 130.212 105.342 131.271 104.855 132.178C104.368 133.073 103.648 133.77 102.696 134.269C101.755 134.756 100.622 135 99.2961 135H95.4881V123.015H99.2961C100.622 123.015 101.755 123.259 102.696 123.746C103.648 124.222 104.368 124.913 104.855 125.82C105.342 126.715 105.586 127.775 105.586 128.999ZM99.1771 133.606C100.741 133.606 101.937 133.204 102.764 132.399C103.591 131.594 104.005 130.461 104.005 128.999C104.005 127.537 103.591 126.404 102.764 125.599C101.948 124.783 100.752 124.375 99.1771 124.375H97.0351V133.606H99.1771ZM107.402 122.93C107.402 122.647 107.498 122.42 107.691 122.25C107.883 122.069 108.138 121.978 108.456 121.978C108.773 121.978 109.028 122.069 109.221 122.25C109.413 122.42 109.51 122.647 109.51 122.93C109.51 123.213 109.413 123.446 109.221 123.627C109.028 123.797 108.773 123.882 108.456 123.882C108.138 123.882 107.883 123.797 107.691 123.627C107.498 123.446 107.402 123.213 107.402 122.93ZM109.221 125.667V135H107.674V125.667H109.221ZM115.533 125.548C116.439 125.548 117.204 125.775 117.828 126.228C118.462 126.681 118.904 127.288 119.154 128.047V125.667H120.701V135.153C120.701 136.014 120.519 136.779 120.157 137.448C119.794 138.117 119.284 138.638 118.627 139.012C117.969 139.386 117.204 139.573 116.332 139.573C115.074 139.573 114.048 139.267 113.255 138.655C112.461 138.054 111.957 137.238 111.742 136.207H113.272C113.453 136.83 113.793 137.318 114.292 137.669C114.802 138.032 115.453 138.213 116.247 138.213C117.085 138.213 117.777 137.941 118.321 137.397C118.876 136.864 119.154 136.116 119.154 135.153V132.62C118.904 133.379 118.462 133.986 117.828 134.439C117.204 134.892 116.439 135.119 115.533 135.119C114.705 135.119 113.969 134.926 113.323 134.541C112.677 134.156 112.167 133.606 111.793 132.892C111.43 132.167 111.249 131.317 111.249 130.342C111.249 129.367 111.43 128.517 111.793 127.792C112.167 127.067 112.677 126.511 113.323 126.126C113.969 125.741 114.705 125.548 115.533 125.548ZM115.975 126.925C115.023 126.925 114.258 127.231 113.68 127.843C113.113 128.444 112.83 129.277 112.83 130.342C112.83 131.407 113.113 132.246 113.68 132.858C114.258 133.459 115.023 133.759 115.975 133.759C116.587 133.759 117.131 133.617 117.607 133.334C118.094 133.051 118.474 132.654 118.746 132.144C119.018 131.623 119.154 131.022 119.154 130.342C119.154 129.662 119.018 129.061 118.746 128.54C118.474 128.019 118.094 127.622 117.607 127.35C117.131 127.067 116.587 126.925 115.975 126.925ZM122.891 122.93C122.891 122.647 122.987 122.42 123.18 122.25C123.373 122.069 123.628 121.978 123.945 121.978C124.262 121.978 124.517 122.069 124.71 122.25C124.903 122.42 124.999 122.647 124.999 122.93C124.999 123.213 124.903 123.446 124.71 123.627C124.517 123.797 124.262 123.882 123.945 123.882C123.628 123.882 123.373 123.797 123.18 123.627C122.987 123.446 122.891 123.213 122.891 122.93ZM124.71 125.667V135H123.163V125.667H124.71ZM131.651 133.64V135H130.495C129.543 135 128.829 134.773 128.353 134.32C127.888 133.867 127.656 133.107 127.656 132.042V127.01H126.262V125.667H127.656V123.338H129.22V125.667H131.634V127.01H129.22V132.076C129.22 132.677 129.328 133.09 129.543 133.317C129.77 133.532 130.155 133.64 130.699 133.64H131.651ZM137.364 125.548C138.271 125.548 139.036 125.775 139.659 126.228C140.294 126.681 140.736 127.288 140.985 128.047V125.667H142.532V135H140.985V132.62C140.736 133.379 140.294 133.986 139.659 134.439C139.036 134.892 138.271 135.119 137.364 135.119C136.537 135.119 135.8 134.926 135.154 134.541C134.508 134.156 133.998 133.606 133.624 132.892C133.261 132.167 133.08 131.317 133.08 130.342C133.08 129.367 133.261 128.517 133.624 127.792C133.998 127.067 134.508 126.511 135.154 126.126C135.8 125.741 136.537 125.548 137.364 125.548ZM137.806 126.925C136.854 126.925 136.089 127.231 135.511 127.843C134.944 128.444 134.661 129.277 134.661 130.342C134.661 131.407 134.944 132.246 135.511 132.858C136.089 133.459 136.854 133.759 137.806 133.759C138.418 133.759 138.962 133.617 139.438 133.334C139.925 133.051 140.305 132.654 140.577 132.144C140.849 131.623 140.985 131.022 140.985 130.342C140.985 129.662 140.849 129.061 140.577 128.54C140.305 128.019 139.925 127.622 139.438 127.35C138.962 127.067 138.418 126.925 137.806 126.925ZM146.541 122.42V135H144.994V122.42H146.541ZM165.23 123.219V135H163.683V125.599L159.926 135H158.549L154.775 125.633V135H153.228V123.219H155.081L159.263 133.113L163.377 123.219H165.23ZM171.53 125.548C172.437 125.548 173.202 125.775 173.825 126.228C174.46 126.681 174.902 127.288 175.151 128.047V125.667H176.698V135H175.151V132.62C174.902 133.379 174.46 133.986 173.825 134.439C173.202 134.892 172.437 135.119 171.53 135.119C170.703 135.119 169.966 134.926 169.32 134.541C168.674 134.156 168.164 133.606 167.79 132.892C167.427 132.167 167.246 131.317 167.246 130.342C167.246 129.367 167.427 128.517 167.79 127.792C168.164 127.067 168.674 126.511 169.32 126.126C169.966 125.741 170.703 125.548 171.53 125.548ZM171.972 126.925C171.02 126.925 170.255 127.231 169.677 127.843C169.11 128.444 168.827 129.277 168.827 130.342C168.827 131.407 169.11 132.246 169.677 132.858C170.255 133.459 171.02 133.759 171.972 133.759C172.584 133.759 173.128 133.617 173.604 133.334C174.091 133.051 174.471 132.654 174.743 132.144C175.015 131.623 175.151 131.022 175.151 130.342C175.151 129.662 175.015 129.061 174.743 128.54C174.471 128.019 174.091 127.622 173.604 127.35C173.128 127.067 172.584 126.925 171.972 126.925ZM180.707 127.554C181.013 126.908 181.461 126.409 182.05 126.058C182.639 125.695 183.342 125.514 184.158 125.514V127.197H183.682C182.809 127.197 182.095 127.424 181.54 127.877C180.985 128.319 180.707 129.056 180.707 130.087V135H179.16V125.667H180.707V127.554ZM190.801 135L187.231 130.801V135H185.684V122.42H187.231V129.73L190.75 125.667H192.637L188.455 130.308L192.739 135H190.801ZM202.686 129.815C202.686 130.144 202.664 130.427 202.618 130.665H195.155C195.189 131.73 195.49 132.529 196.056 133.062C196.634 133.595 197.337 133.861 198.164 133.861C198.912 133.861 199.536 133.674 200.034 133.3C200.544 132.915 200.856 132.405 200.969 131.77H202.618C202.505 132.416 202.25 132.994 201.853 133.504C201.468 134.014 200.964 134.411 200.34 134.694C199.717 134.977 199.014 135.119 198.232 135.119C197.337 135.119 196.544 134.926 195.852 134.541C195.161 134.156 194.617 133.606 194.22 132.892C193.835 132.167 193.642 131.317 193.642 130.342C193.642 129.367 193.835 128.517 194.22 127.792C194.617 127.067 195.161 126.511 195.852 126.126C196.544 125.741 197.337 125.548 198.232 125.548C199.139 125.548 199.927 125.741 200.595 126.126C201.275 126.511 201.791 127.027 202.142 127.673C202.505 128.319 202.686 129.033 202.686 129.815ZM201.122 129.917C201.156 129.226 201.043 128.648 200.782 128.183C200.522 127.718 200.165 127.373 199.711 127.146C199.258 126.919 198.765 126.806 198.232 126.806C197.382 126.806 196.668 127.072 196.09 127.605C195.512 128.126 195.201 128.897 195.155 129.917H201.122ZM209.164 133.64V135H208.008C207.056 135 206.342 134.773 205.866 134.32C205.401 133.867 205.169 133.107 205.169 132.042V127.01H203.775V125.667H205.169V123.338H206.733V125.667H209.147V127.01H206.733V132.076C206.733 132.677 206.84 133.09 207.056 133.317C207.282 133.532 207.668 133.64 208.212 133.64H209.164ZM210.78 122.93C210.78 122.647 210.876 122.42 211.069 122.25C211.261 122.069 211.516 121.978 211.834 121.978C212.151 121.978 212.406 122.069 212.599 122.25C212.791 122.42 212.888 122.647 212.888 122.93C212.888 123.213 212.791 123.446 212.599 123.627C212.406 123.797 212.151 123.882 211.834 123.882C211.516 123.882 211.261 123.797 211.069 123.627C210.876 123.446 210.78 123.213 210.78 122.93ZM212.599 125.667V135H211.052V125.667H212.599ZM219.999 125.514C221.087 125.514 221.965 125.865 222.634 126.568C223.302 127.259 223.637 128.262 223.637 129.577V135H222.09V129.713C222.09 128.784 221.852 128.07 221.376 127.571C220.9 127.072 220.254 126.823 219.438 126.823C218.588 126.823 217.908 127.101 217.398 127.656C216.888 128.2 216.633 128.999 216.633 130.053V135H215.086V125.667H216.633V127.877C216.871 127.118 217.29 126.534 217.891 126.126C218.503 125.718 219.205 125.514 219.999 125.514ZM229.835 125.548C230.741 125.548 231.506 125.775 232.13 126.228C232.764 126.681 233.206 127.288 233.456 128.047V125.667H235.003V135.153C235.003 136.014 234.821 136.779 234.459 137.448C234.096 138.117 233.586 138.638 232.929 139.012C232.271 139.386 231.506 139.573 230.634 139.573C229.376 139.573 228.35 139.267 227.557 138.655C226.763 138.054 226.259 137.238 226.044 136.207H227.574C227.755 136.83 228.095 137.318 228.594 137.669C229.104 138.032 229.755 138.213 230.549 138.213C231.387 138.213 232.079 137.941 232.623 137.397C233.178 136.864 233.456 136.116 233.456 135.153V132.62C233.206 133.379 232.764 133.986 232.13 134.439C231.506 134.892 230.741 135.119 229.835 135.119C229.007 135.119 228.271 134.926 227.625 134.541C226.979 134.156 226.469 133.606 226.095 132.892C225.732 132.167 225.551 131.317 225.551 130.342C225.551 129.367 225.732 128.517 226.095 127.792C226.469 127.067 226.979 126.511 227.625 126.126C228.271 125.741 229.007 125.548 229.835 125.548ZM230.277 126.925C229.325 126.925 228.56 127.231 227.982 127.843C227.415 128.444 227.132 129.277 227.132 130.342C227.132 131.407 227.415 132.246 227.982 132.858C228.56 133.459 229.325 133.759 230.277 133.759C230.889 133.759 231.433 133.617 231.909 133.334C232.396 133.051 232.776 132.654 233.048 132.144C233.32 131.623 233.456 131.022 233.456 130.342C233.456 129.662 233.32 129.061 233.048 128.54C232.776 128.019 232.396 127.622 231.909 127.35C231.433 127.067 230.889 126.925 230.277 126.925Z" fill="#B481F8"/>
<path d="M97.3334 25.5872V1.4444H115.44L97.3334 25.5872Z" fill="#742FD0"/>
<path d="M97.3334 25.5873V49.7301H115.44L97.3334 25.5873Z" fill="#742FD0"/>
<path d="M103.369 25.5872L121.476 1.4444H139.583L121.476 25.5872L139.583 49.7301H121.476L103.369 25.5872Z" fill="#742FD0"/>
</svg>
