<svg width="20" height="20" viewBox="0 0 20 20" fill="none" xmlns="http://www.w3.org/2000/svg">
<path d="M9.33332 15C10.8717 15 12.2858 14.4708 13.4142 13.5933L17.0775 17.2567L18.2558 16.0783L14.5925 12.415C15.4708 11.2858 16 9.87166 16 8.33332C16 4.65749 13.0092 1.66666 9.33332 1.66666C5.65749 1.66666 2.66666 4.65749 2.66666 8.33332C2.66666 12.0092 5.65749 15 9.33332 15ZM9.33332 3.33332C12.0908 3.33332 14.3333 5.57582 14.3333 8.33332C14.3333 11.0908 12.0908 13.3333 9.33332 13.3333C6.57582 13.3333 4.33332 11.0908 4.33332 8.33332C4.33332 5.57582 6.57582 3.33332 9.33332 3.33332Z" fill="black"/>
<path d="M11.51 7.15501C11.8258 7.47168 12 7.89001 12 8.33334H13.6667C13.6667 7.44584 13.32 6.60918 12.6883 5.97668C11.4267 4.71668 9.23917 4.71668 7.97833 5.97668L9.155 7.15668C9.78833 6.52501 10.88 6.52668 11.51 7.15501Z" fill="black"/>
</svg>
